<svg width="12" height="12" viewBox="0 0 12 12" fill="none" xmlns="http://www.w3.org/2000/svg">
<path fill-rule="evenodd" clip-rule="evenodd" d="M11.1386 0C11.367 0 11.5859 0.0912352 11.7467 0.253436C12.0787 0.587614 12.0787 1.12733 11.7467 1.4615L7.212 5.99828L11.7467 10.5349C11.9088 10.6957 12 10.9147 12 11.1432C12 11.3716 11.9088 11.5906 11.7467 11.7515C11.585 11.9119 11.3662 12.0013 11.1386 12C10.911 12.0013 10.6922 11.9119 10.5305 11.7515L5.99571 7.21456L1.46947 11.7429C1.30925 11.9065 1.09028 11.999 0.861399 12C0.633757 12.0013 0.414957 11.9119 0.253332 11.7515C0.091198 11.5906 0 11.3716 0 11.1432C0 10.9147 0.091198 10.6957 0.253332 10.5349L4.78286 6.00256L0.253332 1.47007C-0.0824948 1.13411 -0.0824948 0.589401 0.253332 0.253436C0.589158 -0.0825287 1.13364 -0.0825291 1.46947 0.253436L6 4.78542L10.5305 0.253436C10.6913 0.0912352 10.9102 0 11.1386 0Z" fill="white"/>
</svg>
