<svg width="10" height="17" viewBox="0 0 10 17" fill="none" xmlns="http://www.w3.org/2000/svg">
<path fill-rule="evenodd" clip-rule="evenodd" d="M8.74457 0.69997C9.07635 0.698233 9.39523 0.817456 9.63079 1.03132C9.86709 1.24585 10 1.53787 10 1.84251C10 2.14715 9.86709 2.43917 9.63079 2.6537L3.01538 8.69763L9.63079 14.7416C10.1202 15.1896 10.1202 15.9159 9.63079 16.3639C9.14134 16.812 8.3478 16.812 7.85836 16.3639L0.369215 9.50882C0.132916 9.29429 6.72953e-07 9.00227 6.99585e-07 8.69763C7.26217e-07 8.39299 0.132916 8.10097 0.369215 7.88644L7.85836 1.03132C8.09392 0.817456 8.4128 0.698233 8.74457 0.69997Z" fill="#EC0000"/>
</svg>
