<svg width="10" height="16" viewBox="0 0 10 16" fill="none" xmlns="http://www.w3.org/2000/svg">
<path fill-rule="evenodd" clip-rule="evenodd" d="M1.25543 16C0.923655 16.0017 0.60477 15.8825 0.369213 15.6686C0.132914 15.4541 0 15.1621 0 14.8574C0 14.5528 0.132914 14.2608 0.369213 14.0463L6.98462 8.00232L0.369213 1.95838C-0.120231 1.51038 -0.120231 0.784013 0.369213 0.336006C0.858656 -0.112002 1.6522 -0.112002 2.14164 0.336006L9.63079 7.19113C9.86708 7.40566 10 7.69768 10 8.00232C10 8.30696 9.86708 8.59898 9.63079 8.81351L2.14164 15.6686C1.90609 15.8825 1.5872 16.0017 1.25543 16Z" fill="url(#paint0_linear_1749_8642)"/>
<defs>
<linearGradient id="paint0_linear_1749_8642" x1="-0.859193" y1="7.9248" x2="9.22634" y2="9.01825" gradientUnits="userSpaceOnUse">
<stop stop-color="#FF1D53"/>
<stop offset="1" stop-color="#A540D7"/>
</linearGradient>
</defs>
</svg>
