<svg width="21" height="21" viewBox="0 0 21 21" fill="none" xmlns="http://www.w3.org/2000/svg">
<path fill-rule="evenodd" clip-rule="evenodd" d="M14.3433 13.2155C14.8091 12.105 16.0697 11.5598 17.1986 11.9803L19.2692 12.7501C20.15 13.0767 20.7344 13.9176 20.7344 14.857V18.086C20.7344 19.53 19.5636 20.7 18.1194 20.7C8.51757 20.7 0.734375 12.9164 0.734375 3.31495C0.734375 1.87069 1.90435 0.699951 3.34837 0.699951H6.57737C7.51585 0.699951 8.35584 1.28439 8.68396 2.16451L9.45511 4.23591C9.87431 5.36493 9.32922 6.62395 8.21918 7.09086L6.033 8.01012C7.53206 10.7451 10.7006 13.9166 13.4246 15.4022L14.3433 13.2155ZM13.4559 16.5427L13.3997 16.5151C10.2352 14.9675 6.42874 11.1476 4.89053 7.97721C4.76539 7.71928 4.8823 7.40916 5.14657 7.29804L7.83151 6.16906C8.44771 5.90988 8.75037 5.21079 8.51779 4.5844L7.74687 2.51361C7.56457 2.02462 7.09794 1.69995 6.57737 1.69995H3.34837C2.45678 1.69995 1.73438 2.42283 1.73438 3.31495C1.73438 12.3642 9.06987 19.7 18.1194 19.7C19.0115 19.7 19.7344 18.9775 19.7344 18.086V14.857C19.7344 14.3356 19.41 13.8689 18.9211 13.6876L16.8499 12.9175C16.2233 12.6841 15.5237 12.9867 15.2653 13.6026L14.1373 16.2876C14.0259 16.5529 13.7142 16.6696 13.4559 16.5427Z" fill="#EC0000"/>
</svg>
